<?xml version="1.0" standalone="no"?>
<!DOCTYPE svg PUBLIC "-//W3C//DTD SVG 20010904//EN"
 "http://www.w3.org/TR/2001/REC-SVG-20010904/DTD/svg10.dtd">
<svg version="1.0" xmlns="http://www.w3.org/2000/svg"
 width="461.000000pt" height="461.000000pt" viewBox="0 0 461.000000 461.000000"
 preserveAspectRatio="xMidYMid meet">
<metadata>
Created by potrace 1.14, written by Peter Selinger 2001-2017
</metadata>
<g transform="translate(0.000000,461.000000) scale(0.100000,-0.100000)"
fill="#000000" stroke="none">
<path d="M2928 4288 c-15 -26 -18 -529 -5 -718 14 -206 29 -343 44 -394 5 -17
1 -18 -48 -11 -91 13 -322 7 -424 -11 -16 -3 -42 -7 -57 -9 -15 -2 -31 -6 -35
-8 -4 -3 -25 -8 -45 -11 -20 -3 -72 -18 -114 -32 -77 -27 -78 -27 -108 -9
-253 150 -635 282 -931 321 -16 2 -41 6 -55 10 -48 11 -308 14 -334 4 -14 -5
-26 -17 -26 -26 0 -33 178 -187 288 -249 15 -9 41 -24 57 -34 125 -79 544
-270 713 -326 59 -19 56 -12 37 -105 -10 -44 -15 -84 -21 -155 -3 -38 -7 -71
-8 -72 -1 -1 -13 3 -26 10 -121 63 -513 189 -654 211 -21 4 -42 8 -46 11 -7 4
-34 9 -120 21 -82 11 -78 11 -170 18 -149 13 -180 13 -189 2 -22 -27 162 -471
296 -708 30 -54 57 -98 61 -99 4 -1 87 -2 185 -4 198 -3 386 -13 400 -22 4 -3
5 -12 2 -22 -7 -17 -60 -193 -76 -251 -5 -19 -12 -42 -14 -50 -26 -87 -36
-143 -29 -150 5 -4 73 -31 151 -60 78 -29 146 -57 151 -64 29 -37 34 -106 8
-106 -33 0 -91 -25 -121 -51 -29 -26 -35 -28 -43 -14 -18 34 -95 105 -113 105
-12 0 -25 -16 -39 -48 -18 -39 -21 -59 -16 -122 5 -75 11 -113 23 -160 3 -14
7 -30 9 -36 19 -94 97 -289 149 -374 61 -100 126 -149 160 -120 11 9 23 9 52
-1 35 -12 202 -14 418 -6 54 2 60 0 57 -17 -5 -26 15 -36 51 -25 23 6 37 5 54
-6 19 -13 26 -13 43 -3 15 10 22 10 31 1 9 -9 20 -9 47 3 31 13 37 13 52 -1
22 -20 26 -19 64 10 27 20 38 23 63 16 23 -7 37 -5 52 6 20 13 24 12 52 -11
34 -29 69 -34 69 -11 0 19 10 19 46 0 34 -17 54 -19 54 -5 0 6 15 10 34 10 19
0 36 5 38 10 2 6 14 12 28 15 14 3 30 11 35 18 7 10 44 14 140 16 126 1 150 3
280 21 44 6 64 4 75 -5 37 -31 82 -26 120 14 41 43 120 178 120 205 0 6 6 23
14 37 19 37 64 223 73 300 13 124 8 178 -24 223 -32 45 -53 54 -76 32 -8 -8
-17 -13 -20 -10 -7 7 -61 -66 -77 -105 l-12 -31 -47 38 c-25 20 -52 43 -59 50
-8 7 -29 19 -48 27 -30 12 -42 29 -89 127 -73 153 -101 244 -111 359 l-5 55
56 65 c66 76 69 80 78 99 4 8 17 31 28 50 31 51 55 128 58 186 3 57 -15 132
-65 279 -18 55 -47 157 -64 227 -16 70 -43 163 -59 205 -23 62 -30 96 -31 163
-4 220 -14 317 -56 510 -63 297 -205 621 -331 761 -40 45 -57 48 -75 17z
m-973 -2568 c-3 -10 -7 -27 -9 -37 -2 -10 -9 -38 -16 -63 -7 -25 -14 -54 -16
-65 -11 -60 -17 -81 -26 -86 -8 -5 -114 43 -132 61 -5 5 5 28 23 55 17 25 31
48 31 51 0 2 26 43 57 90 l57 85 18 -36 c11 -20 16 -44 13 -55z"/>
</g>
</svg>
